HIERARCHY
ROOT hip
{
  OFFSET 0 0 0
  CHANNELS 6 Xposition Yposition Zposition Zrotation Yrotation Xrotation
  JOINT abdomen
  {
    OFFSET 0 20.6881 -0.73152
    CHANNELS 3 Zrotation Xrotation Yrotation
    JOINT chest
    {
      OFFSET 0 11.7043 -0.48768
      CHANNELS 3 Zrotation Xrotation Yrotation
      JOINT neck
      {
        OFFSET 0 22.1894 -2.19456
        CHANNELS 3 Zrotation Xrotation Yrotation
        JOINT head
        {
          OFFSET -0.24384 7.07133 1.2192
          CHANNELS 3 Zrotation Xrotation Yrotation
          JOINT leftEye
          {
            OFFSET 4.14528 8.04674 8.04672
            CHANNELS 3 Zrotation Xrotation Yrotation
            End Site
            {
              OFFSET 1 0 0
            }
          }
          JOINT rightEye
          {
            OFFSET -3.6576 8.04674 8.04672
            CHANNELS 3 Zrotation Xrotation Yrotation
            End Site
            {
              OFFSET 1 0 0
            }
          }
        }
      }
      JOINT rCollar
      {
        OFFSET -2.68224 19.2634 -4.8768
        CHANNELS 3 Zrotation Xrotation Yrotation
        JOINT rShldr
        {
          OFFSET -8.77824 -1.95073 1.46304
          CHANNELS 3 Zrotation Xrotation Yrotation
          JOINT rForeArm
          {
            OFFSET -28.1742 -1.7115 0.48768
            CHANNELS 3 Zrotation Xrotation Yrotation
            JOINT rHand
            {
              OFFSET -22.5879 0.773209 7.07136
              CHANNELS 3 Zrotation Xrotation Yrotation
              JOINT rThumb1
              {
                OFFSET -1.2192 -0.487915 3.41376
                CHANNELS 3 Zrotation Xrotation Yrotation
                JOINT rThumb2
                {
                  OFFSET -3.37035 -0.52449 3.41376
                  CHANNELS 3 Zrotation Xrotation Yrotation
                  End Site
                  {
                    OFFSET -1.78271 -1.18214 1.43049
                  }
                }
              }
              JOINT rIndex1
              {
                OFFSET -7.75947 0.938293 5.60832
                CHANNELS 3 Zrotation Xrotation Yrotation
                JOINT rIndex2
                {
                  OFFSET -2.54057 -0.884171 1.56538
                  CHANNELS 3 Zrotation Xrotation Yrotation
                  End Site
                  {
                    OFFSET -1.62519 -0.234802 1.16502
                  }
                }
              }
              JOINT rMid1
              {
                OFFSET -8.24714 1.18213 3.41376
                CHANNELS 3 Zrotation Xrotation Yrotation
                JOINT rMid2
                {
                  OFFSET -3.10165 -0.590103 1.0647
                  CHANNELS 3 Zrotation Xrotation Yrotation
                  End Site
                  {
                    OFFSET -2.48547 -0.328903 0.83742
                  }
                }
              }
              JOINT rRing1
              {
                OFFSET -8.82822 0.546677 1.51678
                CHANNELS 3 Zrotation Xrotation Yrotation
                JOINT rRing2
                {
                  OFFSET -2.60934 -0.819778 -0.0198488
                  CHANNELS 3 Zrotation Xrotation Yrotation
                  End Site
                  {
                    OFFSET -2.33842 -0.294052 0.168128
                  }
                }
              }
              JOINT rPinky1
              {
                OFFSET -8.27202 -0.0477905 -0.4584
                CHANNELS 3 Zrotation Xrotation Yrotation
                JOINT rPinky2
                {
                  OFFSET -1.82734 -0.647385 -0.700984
                  CHANNELS 3 Zrotation Xrotation Yrotation
                  End Site
                  {
                    OFFSET -1.69225 -0.51767 -0.607171
                  }
                }
              }
            }
          }
        }
      }
      JOINT lCollar
      {
        OFFSET 2.68224 19.2634 -4.8768
        CHANNELS 3 Zrotation Xrotation Yrotation
        JOINT lShldr
        {
          OFFSET 8.77824 -1.95073 1.46304
          CHANNELS 3 Zrotation Xrotation Yrotation
          JOINT lForeArm
          {
            OFFSET 28.1742 -1.7115 0.48768
            CHANNELS 3 Zrotation Xrotation Yrotation
            JOINT lHand
            {
              OFFSET 22.5879 0.773209 7.07136
              CHANNELS 3 Zrotation Xrotation Yrotation
              JOINT lThumb1
              {
                OFFSET 1.2192 -0.487915 3.41376
                CHANNELS 3 Zrotation Xrotation Yrotation
                JOINT lThumb2
                {
                  OFFSET 3.37035 -0.52449 3.41376
                  CHANNELS 3 Zrotation Xrotation Yrotation
                  End Site
                  {
                    OFFSET 1.78271 -1.18214 1.43049
                  }
                }
              }
              JOINT lIndex1
              {
                OFFSET 7.75947 0.938293 5.60832
                CHANNELS 3 Zrotation Xrotation Yrotation
                JOINT lIndex2
                {
                  OFFSET 2.54057 -0.884171 1.56538
                  CHANNELS 3 Zrotation Xrotation Yrotation
                  End Site
                  {
                    OFFSET 1.62519 -0.234802 1.16502
                  }
                }
              }
              JOINT lMid1
              {
                OFFSET 8.24714 1.18213 3.41376
                CHANNELS 3 Zrotation Xrotation Yrotation
                JOINT lMid2
                {
                  OFFSET 3.10165 -0.590103 1.0647
                  CHANNELS 3 Zrotation Xrotation Yrotation
                  End Site
                  {
                    OFFSET 2.48547 -0.328903 0.83742
                  }
                }
              }
              JOINT lRing1
              {
                OFFSET 8.82822 0.546677 1.51678
                CHANNELS 3 Zrotation Xrotation Yrotation
                JOINT lRing2
                {
                  OFFSET 2.60934 -0.819778 -0.0198488
                  CHANNELS 3 Zrotation Xrotation Yrotation
                  End Site
                  {
                    OFFSET 2.33842 -0.294052 0.168128
                  }
                }
              }
              JOINT lPinky1
              {
                OFFSET 8.27202 -0.0477905 -0.4584
                CHANNELS 3 Zrotation Xrotation Yrotation
                JOINT lPinky2
                {
                  OFFSET 1.82734 -0.647385 -0.700984
                  CHANNELS 3 Zrotation Xrotation Yrotation
                  End Site
                  {
                    OFFSET 1.69225 -0.51767 -0.607171
                  }
                }
              }
            }
          }
        }
      }
    }
  }
  JOINT rButtock
  {
    OFFSET -8.77824 4.35084 1.2192
    CHANNELS 3 Zrotation Xrotation Yrotation
    JOINT rThigh
    {
      OFFSET 0 -1.70687 -2.19456
      CHANNELS 3 Zrotation Xrotation Yrotation
      JOINT rShin
      {
        OFFSET 0 -36.8199 0.73152
        CHANNELS 3 Zrotation Xrotation Yrotation
        JOINT rFoot
        {
          OFFSET 0.73152 -45.1104 -5.12064
          CHANNELS 3 Zrotation Xrotation Yrotation
          End Site
          {
            OFFSET -1.1221 -3.69964 12.103
          }
        }
      }
    }
  }
  JOINT lButtock
  {
    OFFSET 8.77824 4.35084 1.2192
    CHANNELS 3 Zrotation Xrotation Yrotation
    JOINT lThigh
    {
      OFFSET 0 -1.70687 -2.19456
      CHANNELS 3 Zrotation Xrotation Yrotation
      JOINT lShin
      {
        OFFSET 0 -36.8199 0.73152
        CHANNELS 3 Zrotation Xrotation Yrotation
        JOINT lFoot
        {
          OFFSET -0.73152 -45.1104 -5.12064
          CHANNELS 3 Zrotation Xrotation Yrotation
          End Site
          {
            OFFSET 1.1221 -3.69964 12.103
          }
        }
      }
    }
  }
}
MOTION
Frames:	4
Frame Time:	0.03333
-1.4134773053228855 33.54431986808777 0.05117504624649882 -2.7492646928250837 2.4275890364571056 1.371449905146139 -0.06734209003918204 8.592966225918309 1.8967862211948536 2.202443589855271 -4.239337054607773 0.674153118015187 -2.9086437420127464 7.62914201043853 -0.8219198851184758 4.393779584572809 -13.600503194213879 -2.0153672698095604 0.3883957189450132 0.5941329695768448 -1.11413362722331 -0.5591203526743016 0.9298612065535955 0.4307569257034025 0.4803144838043407 0.986073343257683 0.7687708748137274 23.947232333880617 16.75232813766211 8.34122765122644 -12.410378589832298 -15.335401979248381 33.493984104746076 -2.201740934144406 -5.544686950287468 -2.3593738027820725 0.5618829507501603 0.3521307495055512 0.6396545795693931 -0.05484647239605528 0.7896795779670174 1.2561270702089398 -0.09845225434705464 0.04509037425991187 0.12372387423482248 3.9477725006392075 1.779708027640961 0.9569837810260103 0.6492584125118128 -0.09989663925331399 0.1948470209283487 1.6828420713884285 1.4862224829683293 -0.971783306853547 0.19079690551351627 -0.3246038064899304 0.02179868047070127 5.076202994455824 -0.6423567731597793 -0.8801982607681981 -0.1188272022290919 0.1950614515156901 1.1039154507815594 1.381378332156693 0.3603397030729809 -0.2969197424429729 0.4731699992108016 0.7819071428566602 0.23403517793044398 -30.214137510589712 16.523405809892672 -11.678703966504791 12.499655992473535 -14.654232335964887 -31.220787865939116 2.1402730735956994 -5.895061567443959 2.499087456688799 0.9241249148678425 0.12329502640035295 0.5004013231014077 0.23388128523070714 1.1641833324704594 0.36489538588852655 0.13090944668508744 -0.10122210949890637 -0.6029938593644669 -3.8000005041723353 2.8986902354013337 -0.09678670204577645 0.8274946001416756 0.6936672886390307 -0.9112075330434675 -1.2400704694090032 -1.0574687770432973 -1.1768136329062822 -0.2720138044800652 0.49727480400883445 0.28078470118928717 -4.910129932994725 -0.712290546463011 0.2928853417993168 0.7446202864039143 -0.963178228994683 -0.7109693851062896 -1.0889911672799641 0.653218588209098 -0.09418363957984789 -0.8068001941735947 0.6217423551101817 -0.31607492792899433 -15.605638413759936 -18.426774625900126 -14.564720999344578 -2.758468799618499 31.653999444236344 3.608842719210719 -1.7892297382307818 -5.473325560725997 -4.690210648325008 0.7050951556158142 -1.2874496774123836 0.09511921541358097 18.25594134947435 -18.44837509915029 16.233863845692078 2.3908404842883213 31.317318929478905 -2.6298883540588935 3.4416469454048 -4.317110711139415 6.654631110228621
-2.504376880824566 39.96433913707733 0.04637644160538912 -3.4653822796574176 3.0726101170017186 1.462979776109599 -0.5440707245292661 10.071072950048782 2.3214032870820906 2.454176615018438 -5.546719785339192 0.8297723081473162 -3.0782742648143633 9.363441446373365 -1.3780067800276454 5.3193000991871555 -16.105316270417852 -2.7767982525864627 0.3253038208385774 0.31802422656551893 -0.7962335713624678 -0.2951896768705498 0.7442540708705253 0.4216646632576462 0.39269703057482874 0.6505844830670001 0.5753609950558581 29.452506531336173 19.953391914836967 9.99901616185244 -14.920869260783846 -18.374837867451348 40.71164990637365 -2.6808996218751338 -6.897311146533759 -2.9056235177391314 0.4275740041893237 0.1803522122512445 0.466714776754052 -0.24095482657032802 0.7201603117690408 1.1098858898897968 -0.008722645157995522 -0.05089312688794017 0.09296030200668837 4.815051992200855 2.5815447020003663 0.865624984956918 0.6165986356957803 -0.26901825960091214 0.2468308436493753 1.79896275779805 1.3435302262532425 -0.8187667923211629 0.015335055347148003 -0.3261307539758249 0.06859752416535535 6.270488891589233 -0.3905825534181809 -0.7596316014565743 -0.055642229455001434 0.04077641610796124 0.8674550487676583 1.539132543373833 0.09863353450453766 -0.26283808566038774 0.3779285607636744 0.6692656907772198 0.1401532672932667 -36.48444241395818 19.963951387293807 -14.82973063159378 14.95541635760577 -17.662467920039237 -38.33673166025769 2.797469179779272 -7.637717312941481 2.892541144157618 0.6928022558528192 0.026302178039646407 0.28239102294385665 0.15457649238621798 0.9165427645588937 0.2601514467586191 0.22363209279321375 -0.13282919674932384 -0.409025184755126 -4.557207228390997 3.541413170733649 -0.16103537006139063 0.6474161290657605 0.6883815759950871 -0.8494538717666782 -1.6086297181787128 -0.6228610653910358 -0.8611247440675259 -0.3529999177578617 0.2938848972956658 -0.05507096150416656 -5.974442025977846 -0.3694705987762301 0.09663330293392884 0.8240479159317579 -0.8103138996147432 -0.5512856988094739 -1.566759484627771 0.29876485401422836 0.10963958393921984 -0.5870764770297224 0.6173866687712706 -0.2672394222089469 -19.206423644184156 -22.419337799568982 -17.578413904565767 -3.5278339008900175 38.55852156298634 4.189773786895575 -2.4353092846533353 -6.600211578016544 -5.984854222480708 0.6286280929280537 -0.9464958121120441 -0.023128167788000326 22.587421924853828 -21.966352823624568 19.56026330168396 2.903762291190303 38.38776000354685 -3.5436741767923348 3.912574828298839 -5.519966788133899 8.201531499679461
-3.293381817638874 45.48223614692688 -0.01861940836533904 -4.153775274875024 3.5806775803945254 1.686964197274237 -1.0121411871118597 11.31290379399465 2.711391720764186 2.5739467568789616 -6.579329982176523 0.9693212371011689 -3.3488639481720544 10.844515033924562 -1.7989335160506659 6.049974526688079 -18.31010987223443 -3.3063321467669735 0.23512744790869067 0.15261348001050046 -0.5129115616182266 -0.2031080546881998 0.5914968367223372 0.45366783477885825 0.36228097090114547 0.3961837354244145 0.46609547069540225 34.183805890160684 22.614882700411865 11.51782142192608 -17.113698078721853 -21.092057874011672 47.01945937847466 -3.1320805741050197 -8.119515441899596 -3.4823971346535654 0.3193425064361843 0.026663350972437275 0.33380329756957067 -0.3373813028384524 0.5843783922250088 0.985611878601884 0.05565618331803236 -0.057683242057431985 0.07837379270389144 5.566342918824639 3.310190563317796 0.7533320326077069 0.5095646088423617 -0.3487766730558253 0.2078724584798275 2.0316574844234525 1.2327449848024588 -0.5855881894817473 -0.09026073643830694 -0.27944529042087707 0.08100002712018779 7.223261434105107 -0.1398146660012486 -0.5759467371380396 -0.05643930719505663 -0.08822237853830771 0.7280102268377954 1.6415906102876077 -0.12612867445183554 -0.22187325238086936 0.331718008799454 0.5300920487017474 0.12689010714215973 -41.76920566160716 22.787829920385757 -17.62809670058844 17.040056686638067 -20.306763704378625 -44.41849602177712 3.321125269292163 -9.151432374536169 3.2252992093407653 0.5971381460899446 -0.06077686418419819 0.1266611624028321 0.08631750281181462 0.6678841782958789 0.20536329777477338 0.19697976083689842 -0.17105915291606036 -0.2052187432242924 -5.147031629262033 4.01633735462238 -0.24750316371537198 0.5302033594408775 0.6141541750248563 -0.7409351859032809 -1.9298554358351165 -0.2732263498207276 -0.6231899816882542 -0.4102598481693116 0.18259032650404017 -0.16564179904803533 -6.901860906294633 -0.02068266658044486 -0.025342990028509187 0.6858292730404709 -0.6238218809081861 -0.3363528791206895 -1.8675468216882636 0.06113851736466507 0.2670182414737149 -0.3927055683112913 0.46989076135725505 -0.14777506471591334 -22.34954351153521 -25.769282625177194 -20.13155569178946 -4.15680659820604 44.47084942176527 4.720999433556133 -3.0321709148036002 -7.5028569353268715 -7.153397563519163 0.6004896878991581 -0.7398010543359415 -0.03946048411482308 26.307134409106308 -24.970145369643824 22.397954184824965 3.4616653760884613 44.44264757068229 -4.305662887203651 4.231671447924903 -6.637414337765135 9.518178528246358
-3.810408152639866 50.27061700820923 -0.1287955790758133 -4.7787030060985165 3.9971440961678213 1.9427875452548895 -1.4522322600071724 12.374088087224727 3.059712158527796 2.619123122153307 -7.400801102522188 1.052235251313481 -3.652366819036156 12.093465496306523 -2.116847232289848 6.643688293404614 -20.234237340676845 -3.670097990121509 0.15842794534573826 0.07146021386102372 -0.26208588439761366 -0.20373877996936818 0.46905833205215974 0.49161780655047715 0.3794446493160057 0.20632603428262783 0.38627771997207455 38.25362191843698 24.844244492672978 12.897116653107625 -19.033674499696193 -23.48815312164926 52.53364526524979 -3.5571334914386683 -9.230338134922741 -4.014057352100066 0.248275668782671 -0.10631200115295425 0.23487152925822674 -0.3889078230502055 0.4429040169358735 0.8821889941069924 0.08289780585324642 -0.016387598170417548 0.07247362983891113 6.20688830447219 3.981464543154411 0.644155407428167 0.39826064654062726 -0.37922720384047603 0.10719519663946847 2.2918076505216023 1.1447883699919734 -0.3510739644944768 -0.14847347823897358 -0.20859580486140092 0.06749519566633876 8.010509037840777 0.1115204472819121 -0.35370561503734155 -0.09209537594218262 -0.18610272460429278 0.6481188914983314 1.7190844425066913 -0.30613628231511175 -0.19892832576169578 0.3237874654819817 0.39116210564142706 0.13642310355236703 -46.24074951120151 25.12788346588339 -20.087268745211095 18.828458050988576 -22.600614435235705 -49.63163107560018 3.7599512630871423 -10.465267072712312 3.4728026398604017 0.5763761852821041 -0.12706993321640148 0.024337191312371918 0.02046551458960606 0.43761608981653494 0.17008755850662605 0.110852115939669 -0.22119519602318694 -0.012010460768644296 -5.645092438633947 4.40606538734237 -0.36656803518323916 0.4676754321886437 0.4919122517367282 -0.6419968008461785 -2.21050235930224 0.014936983384583198 -0.4347740907915749 -0.4532780337484915 0.12648357748441175 -0.1620095257917637 -7.703422025209711 0.2988030603848981 -0.12173979766242633 0.4379205668431294 -0.4236290896959653 -0.0812484085501809 -2.0780436469545362 -0.10427468378958639 0.4046742475321221 -0.23740787731782867 0.26355330785210856 -0.0015887393535419893 -25.076554594270743 -28.63848117095947 -22.333427680188564 -4.652002570107957 49.57273093929258 5.200318203845534 -3.5896481800956908 -8.234213101084327 -8.215790373345511 0.5723528303349964 -0.6119311618934287 0.0016597626487395438 29.49643489298311 -27.5528328476697 24.83900744512687 3.989979654615301 49.66181368154247 -4.9589008987632015 4.434367556828787 -7.636124171317576 10.642956151517486
